<mxfile host="app.diagrams.net" agent="Mozilla/5.0 (Windows NT 10.0; Win64; x64) AppleWebKit/537.36 (KHTML, like Gecko) Chrome/129.0.0.0 Safari/537.36" version="24.7.17">
  <diagram name="1 oldal" id="2BO0TsCF4p_RfSLWa4O_">
<<<<<<< HEAD
    <mxGraphModel dx="1434" dy="780" grid="1" gridSize="10" guides="1" tooltips="1" connect="1" arrows="1" fold="1" page="1" pageScale="1" pageWidth="827" pageHeight="1169" math="0" shadow="0">
      <root>
        <mxCell id="0" />
        <mxCell id="1" parent="0" />
        <mxCell id="4VybHDzB6WPgK6gSuN5l-8" value="&lt;b&gt;&lt;font style=&quot;font-size: 24px;&quot;&gt;Competition&lt;/font&gt;&lt;/b&gt;" style="swimlane;whiteSpace=wrap;html=1;" parent="1" vertex="1">
          <mxGeometry x="100" y="120" width="260" height="230" as="geometry" />
        </mxCell>
        <mxCell id="4VybHDzB6WPgK6gSuN5l-9" value="&lt;ul style=&quot;text-align: left; text-wrap: wrap;&quot;&gt;&lt;li&gt;&lt;font style=&quot;font-size: 24px;&quot;&gt;Name&lt;/font&gt;&lt;/li&gt;&lt;li&gt;&lt;font style=&quot;font-size: 24px;&quot;&gt;Location&lt;/font&gt;&lt;/li&gt;&lt;li&gt;&lt;font style=&quot;font-size: 24px;&quot;&gt;Date(dates)&lt;/font&gt;&lt;/li&gt;&lt;li&gt;&lt;font style=&quot;font-size: 24px;&quot;&gt;Groups&lt;/font&gt;&lt;/li&gt;&lt;/ul&gt;" style="text;html=1;align=center;verticalAlign=middle;resizable=0;points=[];autosize=1;strokeColor=none;fillColor=none;" parent="4VybHDzB6WPgK6gSuN5l-8" vertex="1">
          <mxGeometry x="35" y="55" width="190" height="150" as="geometry" />
        </mxCell>
        <mxCell id="4VybHDzB6WPgK6gSuN5l-10" value="&lt;font style=&quot;font-size: 24px;&quot;&gt;Location&lt;/font&gt;" style="swimlane;fontStyle=0;childLayout=stackLayout;horizontal=1;startSize=30;horizontalStack=0;resizeParent=1;resizeParentMax=0;resizeLast=0;collapsible=1;marginBottom=0;whiteSpace=wrap;html=1;" parent="1" vertex="1">
          <mxGeometry x="470" y="220" width="210" height="150" as="geometry" />
        </mxCell>
        <mxCell id="4VybHDzB6WPgK6gSuN5l-11" value="&lt;font style=&quot;font-size: 15px;&quot;&gt;Country&lt;/font&gt;" style="text;strokeColor=none;fillColor=none;align=left;verticalAlign=middle;spacingLeft=4;spacingRight=4;overflow=hidden;points=[[0,0.5],[1,0.5]];portConstraint=eastwest;rotatable=0;whiteSpace=wrap;html=1;" parent="4VybHDzB6WPgK6gSuN5l-10" vertex="1">
          <mxGeometry y="30" width="210" height="30" as="geometry" />
        </mxCell>
        <mxCell id="4VybHDzB6WPgK6gSuN5l-12" value="&lt;font style=&quot;font-size: 15px;&quot;&gt;City&lt;/font&gt;" style="text;strokeColor=none;fillColor=none;align=left;verticalAlign=middle;spacingLeft=4;spacingRight=4;overflow=hidden;points=[[0,0.5],[1,0.5]];portConstraint=eastwest;rotatable=0;whiteSpace=wrap;html=1;" parent="4VybHDzB6WPgK6gSuN5l-10" vertex="1">
          <mxGeometry y="60" width="210" height="30" as="geometry" />
        </mxCell>
        <mxCell id="4VybHDzB6WPgK6gSuN5l-13" value="&lt;font style=&quot;font-size: 15px;&quot;&gt;StreetName&lt;/font&gt;" style="text;strokeColor=none;fillColor=none;align=left;verticalAlign=middle;spacingLeft=4;spacingRight=4;overflow=hidden;points=[[0,0.5],[1,0.5]];portConstraint=eastwest;rotatable=0;whiteSpace=wrap;html=1;" parent="4VybHDzB6WPgK6gSuN5l-10" vertex="1">
          <mxGeometry y="90" width="210" height="30" as="geometry" />
        </mxCell>
        <mxCell id="4VybHDzB6WPgK6gSuN5l-14" value="&lt;font style=&quot;font-size: 15px;&quot;&gt;HouseNumber&lt;/font&gt;" style="text;strokeColor=none;fillColor=none;align=left;verticalAlign=middle;spacingLeft=4;spacingRight=4;overflow=hidden;points=[[0,0.5],[1,0.5]];portConstraint=eastwest;rotatable=0;whiteSpace=wrap;html=1;" parent="4VybHDzB6WPgK6gSuN5l-10" vertex="1">
          <mxGeometry y="120" width="210" height="30" as="geometry" />
        </mxCell>
        <mxCell id="4VybHDzB6WPgK6gSuN5l-20" value="&lt;font style=&quot;font-size: 24px;&quot;&gt;Group&lt;/font&gt;" style="swimlane;fontStyle=0;childLayout=stackLayout;horizontal=1;startSize=30;horizontalStack=0;resizeParent=1;resizeParentMax=0;resizeLast=0;collapsible=1;marginBottom=0;whiteSpace=wrap;html=1;" parent="1" vertex="1">
          <mxGeometry x="140" y="530" width="140" height="150" as="geometry" />
        </mxCell>
        <mxCell id="4VybHDzB6WPgK6gSuN5l-21" value="&lt;font style=&quot;font-size: 15px;&quot;&gt;GroupName&lt;/font&gt;" style="text;strokeColor=none;fillColor=none;align=left;verticalAlign=middle;spacingLeft=4;spacingRight=4;overflow=hidden;points=[[0,0.5],[1,0.5]];portConstraint=eastwest;rotatable=0;whiteSpace=wrap;html=1;" parent="4VybHDzB6WPgK6gSuN5l-20" vertex="1">
          <mxGeometry y="30" width="140" height="30" as="geometry" />
        </mxCell>
        <mxCell id="4VybHDzB6WPgK6gSuN5l-22" value="&lt;font style=&quot;font-size: 15px;&quot;&gt;ChoreoGrapher&lt;/font&gt;" style="text;strokeColor=none;fillColor=none;align=left;verticalAlign=middle;spacingLeft=4;spacingRight=4;overflow=hidden;points=[[0,0.5],[1,0.5]];portConstraint=eastwest;rotatable=0;whiteSpace=wrap;html=1;" parent="4VybHDzB6WPgK6gSuN5l-20" vertex="1">
          <mxGeometry y="60" width="140" height="30" as="geometry" />
        </mxCell>
        <mxCell id="4VybHDzB6WPgK6gSuN5l-23" value="&lt;span style=&quot;text-align: center;&quot;&gt;&lt;font style=&quot;font-size: 15px;&quot;&gt;Participants&lt;/font&gt;&lt;/span&gt;" style="text;strokeColor=none;fillColor=none;align=left;verticalAlign=middle;spacingLeft=4;spacingRight=4;overflow=hidden;points=[[0,0.5],[1,0.5]];portConstraint=eastwest;rotatable=0;whiteSpace=wrap;html=1;" parent="4VybHDzB6WPgK6gSuN5l-20" vertex="1">
          <mxGeometry y="90" width="140" height="30" as="geometry" />
        </mxCell>
        <mxCell id="4VybHDzB6WPgK6gSuN5l-33" value="&lt;span style=&quot;text-align: center;&quot;&gt;&lt;font style=&quot;font-size: 15px;&quot;&gt;Score&lt;/font&gt;&lt;/span&gt;" style="text;strokeColor=none;fillColor=none;align=left;verticalAlign=middle;spacingLeft=4;spacingRight=4;overflow=hidden;points=[[0,0.5],[1,0.5]];portConstraint=eastwest;rotatable=0;whiteSpace=wrap;html=1;" parent="4VybHDzB6WPgK6gSuN5l-20" vertex="1">
          <mxGeometry y="120" width="140" height="30" as="geometry" />
        </mxCell>
        <mxCell id="4VybHDzB6WPgK6gSuN5l-25" value="&lt;font style=&quot;font-size: 24px;&quot;&gt;Participant&lt;/font&gt;" style="swimlane;fontStyle=0;childLayout=stackLayout;horizontal=1;startSize=30;horizontalStack=0;resizeParent=1;resizeParentMax=0;resizeLast=0;collapsible=1;marginBottom=0;whiteSpace=wrap;html=1;" parent="1" vertex="1">
          <mxGeometry x="350" y="620" width="140" height="150" as="geometry" />
        </mxCell>
        <mxCell id="4VybHDzB6WPgK6gSuN5l-26" value="&lt;font style=&quot;font-size: 15px;&quot;&gt;Name&lt;/font&gt;" style="text;strokeColor=none;fillColor=none;align=left;verticalAlign=middle;spacingLeft=4;spacingRight=4;overflow=hidden;points=[[0,0.5],[1,0.5]];portConstraint=eastwest;rotatable=0;whiteSpace=wrap;html=1;" parent="4VybHDzB6WPgK6gSuN5l-25" vertex="1">
          <mxGeometry y="30" width="140" height="30" as="geometry" />
        </mxCell>
        <mxCell id="4VybHDzB6WPgK6gSuN5l-27" value="&lt;font style=&quot;font-size: 15px;&quot;&gt;Gender&lt;/font&gt;" style="text;strokeColor=none;fillColor=none;align=left;verticalAlign=middle;spacingLeft=4;spacingRight=4;overflow=hidden;points=[[0,0.5],[1,0.5]];portConstraint=eastwest;rotatable=0;whiteSpace=wrap;html=1;" parent="4VybHDzB6WPgK6gSuN5l-25" vertex="1">
          <mxGeometry y="60" width="140" height="30" as="geometry" />
        </mxCell>
        <mxCell id="4VybHDzB6WPgK6gSuN5l-28" value="&lt;font style=&quot;font-size: 15px;&quot;&gt;DateOfBirth&lt;/font&gt;" style="text;strokeColor=none;fillColor=none;align=left;verticalAlign=middle;spacingLeft=4;spacingRight=4;overflow=hidden;points=[[0,0.5],[1,0.5]];portConstraint=eastwest;rotatable=0;whiteSpace=wrap;html=1;" parent="4VybHDzB6WPgK6gSuN5l-25" vertex="1">
          <mxGeometry y="90" width="140" height="30" as="geometry" />
        </mxCell>
        <mxCell id="4VybHDzB6WPgK6gSuN5l-29" value="&lt;font style=&quot;font-size: 15px;&quot;&gt;Address&lt;/font&gt;" style="text;strokeColor=none;fillColor=none;align=left;verticalAlign=middle;spacingLeft=4;spacingRight=4;overflow=hidden;points=[[0,0.5],[1,0.5]];portConstraint=eastwest;rotatable=0;whiteSpace=wrap;html=1;" parent="4VybHDzB6WPgK6gSuN5l-25" vertex="1">
          <mxGeometry y="120" width="140" height="30" as="geometry" />
        </mxCell>
        <mxCell id="4VybHDzB6WPgK6gSuN5l-30" value="" style="endArrow=none;html=1;rounded=0;entryX=0;entryY=0;entryDx=0;entryDy=0;entryPerimeter=0;" parent="1" source="4VybHDzB6WPgK6gSuN5l-9" target="4VybHDzB6WPgK6gSuN5l-11" edge="1">
=======
    <mxGraphModel dx="497" dy="820" grid="1" gridSize="10" guides="1" tooltips="1" connect="1" arrows="1" fold="1" page="1" pageScale="1" pageWidth="827" pageHeight="1169" math="0" shadow="0">
      <root>
        <mxCell id="0" />
        <mxCell id="1" parent="0" />
        <mxCell id="4VybHDzB6WPgK6gSuN5l-8" value="&lt;b&gt;&lt;font style=&quot;font-size: 24px;&quot;&gt;Competition&lt;/font&gt;&lt;/b&gt;" style="swimlane;whiteSpace=wrap;html=1;" vertex="1" parent="1">
          <mxGeometry x="80" y="260" width="260" height="230" as="geometry" />
        </mxCell>
        <mxCell id="4VybHDzB6WPgK6gSuN5l-9" value="&lt;ul style=&quot;text-align: left; text-wrap: wrap;&quot;&gt;&lt;li&gt;&lt;font style=&quot;font-size: 24px;&quot;&gt;Name&lt;/font&gt;&lt;/li&gt;&lt;li&gt;&lt;font style=&quot;font-size: 24px;&quot;&gt;Location&lt;/font&gt;&lt;/li&gt;&lt;li&gt;&lt;font style=&quot;font-size: 24px;&quot;&gt;Date(dates)&lt;/font&gt;&lt;/li&gt;&lt;li&gt;&lt;font style=&quot;font-size: 24px;&quot;&gt;Groups&lt;/font&gt;&lt;/li&gt;&lt;/ul&gt;" style="text;html=1;align=center;verticalAlign=middle;resizable=0;points=[];autosize=1;strokeColor=none;fillColor=none;" vertex="1" parent="4VybHDzB6WPgK6gSuN5l-8">
          <mxGeometry x="35" y="55" width="190" height="150" as="geometry" />
        </mxCell>
        <mxCell id="4VybHDzB6WPgK6gSuN5l-10" value="&lt;font style=&quot;font-size: 24px;&quot;&gt;Location&lt;/font&gt;" style="swimlane;fontStyle=0;childLayout=stackLayout;horizontal=1;startSize=30;horizontalStack=0;resizeParent=1;resizeParentMax=0;resizeLast=0;collapsible=1;marginBottom=0;whiteSpace=wrap;html=1;" vertex="1" parent="1">
          <mxGeometry x="400" y="330" width="210" height="150" as="geometry" />
        </mxCell>
        <mxCell id="4VybHDzB6WPgK6gSuN5l-11" value="&lt;font style=&quot;font-size: 15px;&quot;&gt;Country&lt;/font&gt;" style="text;strokeColor=none;fillColor=none;align=left;verticalAlign=middle;spacingLeft=4;spacingRight=4;overflow=hidden;points=[[0,0.5],[1,0.5]];portConstraint=eastwest;rotatable=0;whiteSpace=wrap;html=1;" vertex="1" parent="4VybHDzB6WPgK6gSuN5l-10">
          <mxGeometry y="30" width="210" height="30" as="geometry" />
        </mxCell>
        <mxCell id="4VybHDzB6WPgK6gSuN5l-12" value="&lt;font style=&quot;font-size: 15px;&quot;&gt;City&lt;/font&gt;" style="text;strokeColor=none;fillColor=none;align=left;verticalAlign=middle;spacingLeft=4;spacingRight=4;overflow=hidden;points=[[0,0.5],[1,0.5]];portConstraint=eastwest;rotatable=0;whiteSpace=wrap;html=1;" vertex="1" parent="4VybHDzB6WPgK6gSuN5l-10">
          <mxGeometry y="60" width="210" height="30" as="geometry" />
        </mxCell>
        <mxCell id="4VybHDzB6WPgK6gSuN5l-13" value="&lt;font style=&quot;font-size: 15px;&quot;&gt;StreetName&lt;/font&gt;" style="text;strokeColor=none;fillColor=none;align=left;verticalAlign=middle;spacingLeft=4;spacingRight=4;overflow=hidden;points=[[0,0.5],[1,0.5]];portConstraint=eastwest;rotatable=0;whiteSpace=wrap;html=1;" vertex="1" parent="4VybHDzB6WPgK6gSuN5l-10">
          <mxGeometry y="90" width="210" height="30" as="geometry" />
        </mxCell>
        <mxCell id="4VybHDzB6WPgK6gSuN5l-14" value="&lt;font style=&quot;font-size: 15px;&quot;&gt;HouseNumber&lt;/font&gt;" style="text;strokeColor=none;fillColor=none;align=left;verticalAlign=middle;spacingLeft=4;spacingRight=4;overflow=hidden;points=[[0,0.5],[1,0.5]];portConstraint=eastwest;rotatable=0;whiteSpace=wrap;html=1;" vertex="1" parent="4VybHDzB6WPgK6gSuN5l-10">
          <mxGeometry y="120" width="210" height="30" as="geometry" />
        </mxCell>
        <mxCell id="4VybHDzB6WPgK6gSuN5l-20" value="&lt;font style=&quot;font-size: 24px;&quot;&gt;Group&lt;/font&gt;" style="swimlane;fontStyle=0;childLayout=stackLayout;horizontal=1;startSize=30;horizontalStack=0;resizeParent=1;resizeParentMax=0;resizeLast=0;collapsible=1;marginBottom=0;whiteSpace=wrap;html=1;" vertex="1" parent="1">
          <mxGeometry x="140" y="530" width="140" height="150" as="geometry" />
        </mxCell>
        <mxCell id="4VybHDzB6WPgK6gSuN5l-21" value="&lt;font style=&quot;font-size: 15px;&quot;&gt;GroupName&lt;/font&gt;" style="text;strokeColor=none;fillColor=none;align=left;verticalAlign=middle;spacingLeft=4;spacingRight=4;overflow=hidden;points=[[0,0.5],[1,0.5]];portConstraint=eastwest;rotatable=0;whiteSpace=wrap;html=1;" vertex="1" parent="4VybHDzB6WPgK6gSuN5l-20">
          <mxGeometry y="30" width="140" height="30" as="geometry" />
        </mxCell>
        <mxCell id="4VybHDzB6WPgK6gSuN5l-22" value="&lt;font style=&quot;font-size: 15px;&quot;&gt;ChoreoGrapher&lt;/font&gt;" style="text;strokeColor=none;fillColor=none;align=left;verticalAlign=middle;spacingLeft=4;spacingRight=4;overflow=hidden;points=[[0,0.5],[1,0.5]];portConstraint=eastwest;rotatable=0;whiteSpace=wrap;html=1;" vertex="1" parent="4VybHDzB6WPgK6gSuN5l-20">
          <mxGeometry y="60" width="140" height="30" as="geometry" />
        </mxCell>
        <mxCell id="4VybHDzB6WPgK6gSuN5l-23" value="&lt;span style=&quot;text-align: center;&quot;&gt;&lt;font style=&quot;font-size: 15px;&quot;&gt;Participants&lt;/font&gt;&lt;/span&gt;" style="text;strokeColor=none;fillColor=none;align=left;verticalAlign=middle;spacingLeft=4;spacingRight=4;overflow=hidden;points=[[0,0.5],[1,0.5]];portConstraint=eastwest;rotatable=0;whiteSpace=wrap;html=1;" vertex="1" parent="4VybHDzB6WPgK6gSuN5l-20">
          <mxGeometry y="90" width="140" height="30" as="geometry" />
        </mxCell>
        <mxCell id="4VybHDzB6WPgK6gSuN5l-33" value="&lt;span style=&quot;text-align: center;&quot;&gt;&lt;font style=&quot;font-size: 15px;&quot;&gt;Score&lt;/font&gt;&lt;/span&gt;" style="text;strokeColor=none;fillColor=none;align=left;verticalAlign=middle;spacingLeft=4;spacingRight=4;overflow=hidden;points=[[0,0.5],[1,0.5]];portConstraint=eastwest;rotatable=0;whiteSpace=wrap;html=1;" vertex="1" parent="4VybHDzB6WPgK6gSuN5l-20">
          <mxGeometry y="120" width="140" height="30" as="geometry" />
        </mxCell>
        <mxCell id="4VybHDzB6WPgK6gSuN5l-25" value="&lt;font style=&quot;font-size: 24px;&quot;&gt;Participant&lt;/font&gt;" style="swimlane;fontStyle=0;childLayout=stackLayout;horizontal=1;startSize=30;horizontalStack=0;resizeParent=1;resizeParentMax=0;resizeLast=0;collapsible=1;marginBottom=0;whiteSpace=wrap;html=1;" vertex="1" parent="1">
          <mxGeometry x="360" y="620" width="140" height="150" as="geometry" />
        </mxCell>
        <mxCell id="4VybHDzB6WPgK6gSuN5l-26" value="&lt;font style=&quot;font-size: 15px;&quot;&gt;Name&lt;/font&gt;" style="text;strokeColor=none;fillColor=none;align=left;verticalAlign=middle;spacingLeft=4;spacingRight=4;overflow=hidden;points=[[0,0.5],[1,0.5]];portConstraint=eastwest;rotatable=0;whiteSpace=wrap;html=1;" vertex="1" parent="4VybHDzB6WPgK6gSuN5l-25">
          <mxGeometry y="30" width="140" height="30" as="geometry" />
        </mxCell>
        <mxCell id="4VybHDzB6WPgK6gSuN5l-27" value="&lt;font style=&quot;font-size: 15px;&quot;&gt;Gender&lt;/font&gt;" style="text;strokeColor=none;fillColor=none;align=left;verticalAlign=middle;spacingLeft=4;spacingRight=4;overflow=hidden;points=[[0,0.5],[1,0.5]];portConstraint=eastwest;rotatable=0;whiteSpace=wrap;html=1;" vertex="1" parent="4VybHDzB6WPgK6gSuN5l-25">
          <mxGeometry y="60" width="140" height="30" as="geometry" />
        </mxCell>
        <mxCell id="4VybHDzB6WPgK6gSuN5l-28" value="&lt;font style=&quot;font-size: 15px;&quot;&gt;DateOfBirth&lt;/font&gt;" style="text;strokeColor=none;fillColor=none;align=left;verticalAlign=middle;spacingLeft=4;spacingRight=4;overflow=hidden;points=[[0,0.5],[1,0.5]];portConstraint=eastwest;rotatable=0;whiteSpace=wrap;html=1;" vertex="1" parent="4VybHDzB6WPgK6gSuN5l-25">
          <mxGeometry y="90" width="140" height="30" as="geometry" />
        </mxCell>
        <mxCell id="4VybHDzB6WPgK6gSuN5l-29" value="&lt;font style=&quot;font-size: 15px;&quot;&gt;Address&lt;/font&gt;" style="text;strokeColor=none;fillColor=none;align=left;verticalAlign=middle;spacingLeft=4;spacingRight=4;overflow=hidden;points=[[0,0.5],[1,0.5]];portConstraint=eastwest;rotatable=0;whiteSpace=wrap;html=1;" vertex="1" parent="4VybHDzB6WPgK6gSuN5l-25">
          <mxGeometry y="120" width="140" height="30" as="geometry" />
        </mxCell>
        <mxCell id="4VybHDzB6WPgK6gSuN5l-30" value="" style="endArrow=none;html=1;rounded=0;entryX=0;entryY=0;entryDx=0;entryDy=0;entryPerimeter=0;" edge="1" parent="1" source="4VybHDzB6WPgK6gSuN5l-9" target="4VybHDzB6WPgK6gSuN5l-11">
>>>>>>> 91ee72037e4a8b98f393634160d5ce81f31a58c6
          <mxGeometry width="50" height="50" relative="1" as="geometry">
            <mxPoint x="305" y="400" as="sourcePoint" />
            <mxPoint x="355" y="350" as="targetPoint" />
          </mxGeometry>
        </mxCell>
<<<<<<< HEAD
        <mxCell id="4VybHDzB6WPgK6gSuN5l-31" value="" style="endArrow=none;html=1;rounded=0;entryX=0.203;entryY=0.988;entryDx=0;entryDy=0;entryPerimeter=0;exitX=0.25;exitY=0;exitDx=0;exitDy=0;" parent="1" source="4VybHDzB6WPgK6gSuN5l-20" target="4VybHDzB6WPgK6gSuN5l-9" edge="1">
=======
        <mxCell id="4VybHDzB6WPgK6gSuN5l-31" value="" style="endArrow=none;html=1;rounded=0;entryX=0.203;entryY=0.988;entryDx=0;entryDy=0;entryPerimeter=0;exitX=0.25;exitY=0;exitDx=0;exitDy=0;" edge="1" parent="1" source="4VybHDzB6WPgK6gSuN5l-20" target="4VybHDzB6WPgK6gSuN5l-9">
>>>>>>> 91ee72037e4a8b98f393634160d5ce81f31a58c6
          <mxGeometry width="50" height="50" relative="1" as="geometry">
            <mxPoint x="310" y="500" as="sourcePoint" />
            <mxPoint x="360" y="450" as="targetPoint" />
          </mxGeometry>
        </mxCell>
<<<<<<< HEAD
        <mxCell id="4VybHDzB6WPgK6gSuN5l-32" value="" style="endArrow=none;html=1;rounded=0;exitX=1;exitY=0.5;exitDx=0;exitDy=0;entryX=0.003;entryY=0.102;entryDx=0;entryDy=0;entryPerimeter=0;" parent="1" source="4VybHDzB6WPgK6gSuN5l-23" target="4VybHDzB6WPgK6gSuN5l-25" edge="1">
=======
        <mxCell id="4VybHDzB6WPgK6gSuN5l-32" value="" style="endArrow=none;html=1;rounded=0;exitX=1;exitY=0.5;exitDx=0;exitDy=0;entryX=0.003;entryY=0.102;entryDx=0;entryDy=0;entryPerimeter=0;" edge="1" parent="1" source="4VybHDzB6WPgK6gSuN5l-23" target="4VybHDzB6WPgK6gSuN5l-25">
>>>>>>> 91ee72037e4a8b98f393634160d5ce81f31a58c6
          <mxGeometry width="50" height="50" relative="1" as="geometry">
            <mxPoint x="310" y="500" as="sourcePoint" />
            <mxPoint x="360" y="450" as="targetPoint" />
          </mxGeometry>
        </mxCell>
<<<<<<< HEAD
        <mxCell id="4VybHDzB6WPgK6gSuN5l-38" value="" style="endArrow=none;html=1;rounded=0;exitX=1;exitY=0.5;exitDx=0;exitDy=0;entryX=0.756;entryY=1.14;entryDx=0;entryDy=0;entryPerimeter=0;edgeStyle=orthogonalEdgeStyle;" parent="1" source="4VybHDzB6WPgK6gSuN5l-29" target="4VybHDzB6WPgK6gSuN5l-14" edge="1">
          <mxGeometry width="50" height="50" relative="1" as="geometry">
            <mxPoint x="440" y="500" as="sourcePoint" />
            <mxPoint x="490" y="450" as="targetPoint" />
            <Array as="points">
              <mxPoint x="630" y="745" />
              <mxPoint x="630" y="550" />
              <mxPoint x="629" y="550" />
            </Array>
          </mxGeometry>
        </mxCell>
        <mxCell id="HFNIUtRecGkXIbp72KrA-1" value="Country" style="swimlane;fontStyle=0;childLayout=stackLayout;horizontal=1;startSize=30;horizontalStack=0;resizeParent=1;resizeParentMax=0;resizeLast=0;collapsible=1;marginBottom=0;whiteSpace=wrap;html=1;" vertex="1" parent="1">
          <mxGeometry x="274" y="400" width="140" height="90" as="geometry" />
        </mxCell>
        <mxCell id="HFNIUtRecGkXIbp72KrA-2" value="Id" style="text;strokeColor=none;fillColor=none;align=left;verticalAlign=middle;spacingLeft=4;spacingRight=4;overflow=hidden;points=[[0,0.5],[1,0.5]];portConstraint=eastwest;rotatable=0;whiteSpace=wrap;html=1;" vertex="1" parent="HFNIUtRecGkXIbp72KrA-1">
          <mxGeometry y="30" width="140" height="30" as="geometry" />
        </mxCell>
        <mxCell id="HFNIUtRecGkXIbp72KrA-3" value="Name" style="text;strokeColor=none;fillColor=none;align=left;verticalAlign=middle;spacingLeft=4;spacingRight=4;overflow=hidden;points=[[0,0.5],[1,0.5]];portConstraint=eastwest;rotatable=0;whiteSpace=wrap;html=1;" vertex="1" parent="HFNIUtRecGkXIbp72KrA-1">
          <mxGeometry y="60" width="140" height="30" as="geometry" />
        </mxCell>
        <mxCell id="HFNIUtRecGkXIbp72KrA-4" value="Item 3" style="text;strokeColor=none;fillColor=none;align=left;verticalAlign=middle;spacingLeft=4;spacingRight=4;overflow=hidden;points=[[0,0.5],[1,0.5]];portConstraint=eastwest;rotatable=0;whiteSpace=wrap;html=1;" vertex="1" parent="HFNIUtRecGkXIbp72KrA-1">
          <mxGeometry y="90" width="140" as="geometry" />
        </mxCell>
        <mxCell id="HFNIUtRecGkXIbp72KrA-5" value="City" style="swimlane;fontStyle=0;childLayout=stackLayout;horizontal=1;startSize=30;horizontalStack=0;resizeParent=1;resizeParentMax=0;resizeLast=0;collapsible=1;marginBottom=0;whiteSpace=wrap;html=1;" vertex="1" parent="1">
          <mxGeometry x="470" y="470" width="140" height="120" as="geometry" />
        </mxCell>
        <mxCell id="HFNIUtRecGkXIbp72KrA-6" value="Id" style="text;strokeColor=none;fillColor=none;align=left;verticalAlign=middle;spacingLeft=4;spacingRight=4;overflow=hidden;points=[[0,0.5],[1,0.5]];portConstraint=eastwest;rotatable=0;whiteSpace=wrap;html=1;" vertex="1" parent="HFNIUtRecGkXIbp72KrA-5">
          <mxGeometry y="30" width="140" height="30" as="geometry" />
        </mxCell>
        <mxCell id="HFNIUtRecGkXIbp72KrA-7" value="Name&lt;div&gt;&lt;br&gt;&lt;/div&gt;&lt;div&gt;CountryId&lt;/div&gt;" style="text;strokeColor=none;fillColor=none;align=left;verticalAlign=middle;spacingLeft=4;spacingRight=4;overflow=hidden;points=[[0,0.5],[1,0.5]];portConstraint=eastwest;rotatable=0;whiteSpace=wrap;html=1;" vertex="1" parent="HFNIUtRecGkXIbp72KrA-5">
          <mxGeometry y="60" width="140" height="60" as="geometry" />
        </mxCell>
        <mxCell id="HFNIUtRecGkXIbp72KrA-8" value="Item 3" style="text;strokeColor=none;fillColor=none;align=left;verticalAlign=middle;spacingLeft=4;spacingRight=4;overflow=hidden;points=[[0,0.5],[1,0.5]];portConstraint=eastwest;rotatable=0;whiteSpace=wrap;html=1;" vertex="1" parent="HFNIUtRecGkXIbp72KrA-5">
          <mxGeometry y="120" width="140" as="geometry" />
        </mxCell>
        <mxCell id="HFNIUtRecGkXIbp72KrA-9" value="" style="endArrow=none;html=1;rounded=0;entryX=0.007;entryY=0.7;entryDx=0;entryDy=0;entryPerimeter=0;" edge="1" parent="1" target="HFNIUtRecGkXIbp72KrA-7">
          <mxGeometry width="50" height="50" relative="1" as="geometry">
            <mxPoint x="410" y="450" as="sourcePoint" />
            <mxPoint x="460" y="400" as="targetPoint" />
          </mxGeometry>
        </mxCell>
        <mxCell id="HFNIUtRecGkXIbp72KrA-10" value="" style="endArrow=none;html=1;rounded=0;exitX=-0.014;exitY=0.267;exitDx=0;exitDy=0;exitPerimeter=0;entryX=0;entryY=0.5;entryDx=0;entryDy=0;edgeStyle=orthogonalEdgeStyle;" edge="1" parent="1" source="HFNIUtRecGkXIbp72KrA-6" target="4VybHDzB6WPgK6gSuN5l-12">
          <mxGeometry width="50" height="50" relative="1" as="geometry">
            <mxPoint x="440" y="460" as="sourcePoint" />
            <mxPoint x="490" y="410" as="targetPoint" />
            <Array as="points">
              <mxPoint x="460" y="508" />
              <mxPoint x="460" y="295" />
            </Array>
=======
        <mxCell id="4VybHDzB6WPgK6gSuN5l-38" value="" style="endArrow=none;html=1;rounded=0;exitX=1;exitY=0.5;exitDx=0;exitDy=0;entryX=0.756;entryY=1.14;entryDx=0;entryDy=0;entryPerimeter=0;" edge="1" parent="1" source="4VybHDzB6WPgK6gSuN5l-29" target="4VybHDzB6WPgK6gSuN5l-14">
          <mxGeometry width="50" height="50" relative="1" as="geometry">
            <mxPoint x="440" y="500" as="sourcePoint" />
            <mxPoint x="490" y="450" as="targetPoint" />
>>>>>>> 91ee72037e4a8b98f393634160d5ce81f31a58c6
          </mxGeometry>
        </mxCell>
      </root>
    </mxGraphModel>
  </diagram>
</mxfile>
